<svg xmlns="http://www.w3.org/2000/svg" width="512" height="512" fill="currentColor">
  <path
    d="M397.86 85.621c3.913 4.184 6.106 8.392 6.156 14.272-.618 8.347-3.043 16.241-5.407 24.23a584.027 584.027 0 00-2.132 7.51c-2.861 9.921-5.666 16.94-14.102 23.367-9.946 2.947-17.697.778-26.86-3.145-6.674-2.755-13.376-4.349-20.452-5.73l-3.12-.614C295.88 138.783 258.12 142.714 227 163c-23.454 17.12-35.513 42.805-40 71-4.638 32.235-.198 69.828 19.625 96.625A435.279 435.279 0 00211 336l1.445 1.938c14.145 18.295 39.09 27.236 61.09 30.691 6.422.687 12.846.666 19.3.632 2.397-.01 4.794 0 7.192.012 1.58 0 3.16-.003 4.739-.007l2.088.012C314.744 369.207 322 368 330 367v-64c-16.095.118-16.095.118-32.19.27-2.03.009-4.06.017-6.091.023l-3.148.046c-7.565.003-13.7-.947-19.883-5.652-5.937-5.936-6.155-11.512-6.157-19.492l-.023-3.145c-.01-2.19-.013-4.38-.009-6.571.001-3.336-.04-6.67-.085-10.006a2582.43 2582.43 0 01-.008-6.403l-.05-3c.066-6.621 1.411-10.927 5.644-16.07 6.588-6.42 13.784-6.298 22.478-6.29l3.48-.02c3.793-.02 7.586-.024 11.378-.026l7.92-.02c5.534-.013 11.067-.016 16.6-.015 6.38.002 12.762-.02 19.143-.051 6.156-.03 12.31-.037 18.466-.035 2.611-.003 5.223-.012 7.834-.027 3.655-.02 7.31-.014 10.964-.002l3.256-.034c7.442.062 12.634 1.334 18.504 6.196l1.352 1.637 1.398 1.613c2.975 5.03 3.478 10.386 3.488 16.12l.011 2.04c.01 2.237.007 4.475.003 6.712l.015 4.836c.014 4.366.014 8.732.012 13.098-.001 3.65.003 7.3.008 10.951.011 8.615.012 17.23.006 25.846-.006 8.875.006 17.75.027 26.624.018 7.631.024 15.263.02 22.894-.001 4.553.001 9.106.015 13.658.013 4.283.01 8.566-.002 12.849-.002 1.567 0 3.134.009 4.7.047 9.619-.147 17.843-5.573 26.059-6.454 6.167-15.057 8.202-23.437 10.625l-3.623 1.053c-29.567 8.474-59.592 13.236-90.377 13.259l-2.459.002C240.704 447.189 193.933 435.134 157 403l-2.957-2.516C146.295 393.756 140.019 386.29 134 378l-1.272-1.716c-31.542-42.906-39.54-100.853-32.271-152.53 7.68-47.694 31.16-91.856 70.624-120.665 51.641-36.603 172.164-65.083 226.778-17.468z" />
</svg>